<?xml version="1.0" encoding="utf-8"?>
<!-- Generator: Adobe Illustrator 28.0.0, SVG Export Plug-In . SVG Version: 6.00 Build 0)  -->
<svg version="1.1" id="katman_1" xmlns="http://www.w3.org/2000/svg" xmlns:xlink="http://www.w3.org/1999/xlink" x="0px" y="0px"
	 viewBox="0 0 1000 239.7" style="enable-background:new 0 0 1000 239.7;" xml:space="preserve">
<style type="text/css">
	.st0{fill:#D81117;}
	.st1{enable-background:new    ;}
</style>
<g>
	<path d="M284.5,52H303c5.4,0,9.5,1.3,12.2,4c1.9,1.8,2.9,4.2,2.9,7.4v0.3c0,5.1-2.9,8.2-6.7,9.9c4.8,1.8,8.2,4.7,8.2,10.6v0.3
		c0,7.7-6,12.4-16.6,12.4h-18.6V52H284.5z M306.8,65.7c0-2.7-1.9-4.2-5.4-4.2h-5.7V70h5.5C304.7,70,306.8,68.6,306.8,65.7
		L306.8,65.7z M302.4,78.4h-6.7v8.8h6.8c3.6,0,5.7-1.6,5.7-4.4v-0.1C308.2,80.2,306.2,78.4,302.4,78.4z"/>
	<path d="M337.1,51.7h11.7l15.8,45.1h-12.1l-2.6-8.1h-14.1l-2.6,8.1h-11.9L337.1,51.7z M347,79.5l-4.2-13.1l-4.2,13.1H347z"/>
	<path d="M373.8,103.5l4.7-6.5c-5-0.7-9.6-2.7-13.6-6.2l6.2-8.4c3.7,3,7.8,5.1,12.2,5.1c3.1,0,4.7-1.3,4.7-3.3v-0.1
		c0-1.8-1.3-2.9-6.6-4.7c-8.5-2.9-14.4-6-14.4-14.1v-0.2c0-8.1,6.2-13.8,16-13.8c6,0,11.3,1.7,16,5.4l-5.8,8.6
		c-3.1-2.4-6.8-4.1-10.4-4.1c-2.6,0-4.1,1.3-4.1,2.9v0.1c0,2,1.4,3,7.1,5.1c8.5,2.8,13.8,6.2,13.8,13.8v0.1
		c0,7.8-5.3,12.8-13.1,13.8l-3.3,9.8L373.8,103.5z"/>
	<path d="M404.4,52h11.5v17.7L428.3,52h13.3l-13.9,19.1L442,96.8h-13.5l-9-16.3l-3.6,4.7v11.7h-11.5V52z"/>
	<path d="M445.1,52H476v10.1h-19.5v7.4h17.6V79h-17.6v7.7h19.7v10.1h-31.1V52z"/>
	<path d="M481.7,52h10.8l14.9,22.6V52h11.3v44.8h-10.3L493,73.3v23.5h-11.3V52z"/>
	<path d="M534.4,62.4h-11.1V52H557v10.4h-11.1v34.5h-11.5V62.4z"/>
</g>
<g>
	<path d="M575.9,79.7V52h7.4v27.7c0,7.2,3.5,11,9.3,11c5.6,0,9.2-3.7,9.2-10.8V52h7.4v27.5c0,12-6.6,18.1-16.7,18.1
		C582.5,97.5,575.9,91.4,575.9,79.7z M583,41.8h7.4v6.9H583V41.8z M594.8,41.8h7.3v6.9h-7.3V41.8z"/>
	<path d="M616.6,52h6.9l19.7,29.9V52h7.2v44.8h-6.3L623.9,66v30.8h-7.3L616.6,52L616.6,52z"/>
	<path d="M658.7,41.7h7.4v6.9h-7.4V41.7z M658.7,52h7.4v44.8h-7.4V52z"/>
	<path d="M671,52h8.1l11,33.9l11-33.9h7.8l-15.5,45.1h-6.9L671,52z"/>
	<path d="M713.5,52h28.3v6.7h-20.9v12.2h18.5v6.7h-18.5v12.5H742v6.7h-28.6L713.5,52L713.5,52z"/>
	<path d="M747.9,52h16.2c5.1,0,9.3,1.5,12,4.2c2.4,2.4,3.7,5.8,3.7,9.9v0.3c0,6.9-3.8,11.2-9.3,13.1l10.6,17.4h-8.6l-9.5-16
		c-0.1,0.1-0.3,0.1-0.4,0.1h-7.2v15.8H748L747.9,52L747.9,52z M763.4,74.3c5.8,0,9-3.1,9-7.8v-0.1c0-5.1-3.3-7.7-8.8-7.7h-8.1v15.6
		H763.4z"/>
	<path d="M782.8,90.9l4.5-5.6c3.3,3,7,5.3,11.8,5.3c4.3,0,7-2.4,7-5.7v-0.1c0-2.8-1.5-4.7-8.6-7.3c-8.5-3.2-12.9-6.3-12.9-13.5v0
		c0-7.4,5.9-12.6,14.2-12.6c5.2,0,10,1.7,14.1,5.3l-4.2,5.7c-3.1-2.5-6.5-4.2-10.1-4.2c-4,0-6.5,2.2-6.5,5.2v0.1
		c0,3.1,1.7,4.8,9.3,7.8c8.3,3.2,12.2,6.7,12.2,13.2v0.1c0,7.9-6.2,12.9-14.5,12.9C793.3,97.4,787.7,95.4,782.8,90.9z"/>
	<path d="M819.7,41.7h7.4v6.9h-7.4V41.7z M819.7,52h7.4v44.8h-7.4V52z"/>
	<path d="M844.3,58.9h-11.8V52h31v6.9h-11.8v37.9h-7.4V58.9z"/>
	<path d="M868.6,52h28.3v6.7H876v12.2h18.5v6.7H876v12.5h21.2v6.7h-28.6L868.6,52L868.6,52z"/>
	<path d="M899.9,90.9l4.5-5.6c3.3,3,7,5.3,11.8,5.3c4.3,0,7-2.4,7-5.7v-0.1c0-2.8-1.5-4.7-8.6-7.3c-8.5-3.2-12.9-6.3-12.9-13.5v0
		c0-7.4,5.9-12.6,14.2-12.6c5.2,0,10,1.7,14.1,5.3l-4.2,5.7c-3.1-2.5-6.5-4.2-10.1-4.2c-4,0-6.5,2.2-6.5,5.2v0.1
		c0,3.1,1.7,4.8,9.3,7.8c8.3,3.2,12.2,6.7,12.2,13.2v0.1c0,7.9-6.2,12.9-14.5,12.9C910.4,97.4,904.8,95.4,899.9,90.9z"/>
	<path d="M936.9,41.7h7.4v6.9h-7.4V41.7z M936.9,52h7.4v44.8h-7.4V52z"/>
</g>
<g>
	<path class="st0" d="M150.2,152.6l-19.9-15.4l-12.9,10l44.9,34.4l43.9-34.3l-12.1-10.4l-20.2,15.7l-11.7-41.9h-0.1L150.2,152.6z
		 M162.4,39.6l-45,34.4l12.9,10l19.9-15.4l12,42l0,0l-55.5-9.1l19.6-15.6l-12.6-9.5l-44.4,34.2l44.6,34.4l13-10l-20-15.5l54.9-8.9
		l0.3,0.1v-0.1l0,0l0,0v0.1l54.6,9l-19.6,15.6l12.6,9.5l44.4-34.2l-44.6-34.4l-13,10l20,15.5l-54.4,8.9l11.7-42l19.9,15.5l13-10
		L162.4,39.6z"/>
	<g>
		<path d="M139.3,196.4l-2.8,0.8l-0.5-2.5l4.1-1.4h2.1V211h-2.9L139.3,196.4L139.3,196.4z"/>
		<path d="M155,203.3c-0.9,1-2.1,1.6-3.7,1.6c-3,0-5.4-2-5.4-5.5v-0.1c0-3.5,2.5-6,5.8-6c1.8,0,3.1,0.6,4.1,1.6c1.2,1.2,2,3.2,2,6.8
			v0.2c0,6.1-2.6,9.6-6.8,9.6c-1.9,0-3.4-0.7-4.8-1.8l1.5-2.3c1.1,0.9,2.1,1.4,3.4,1.4C153.7,208.7,154.9,206.1,155,203.3z
			 M154.9,199.2L154.9,199.2c0-2-1.2-3.4-3.1-3.4c-1.9,0-3,1.4-3,3.4l0,0c0,2,1.2,3.2,3,3.2C153.7,202.4,154.9,201.1,154.9,199.2z"
			/>
		<path d="M169.9,203.3c-0.9,1-2.1,1.6-3.7,1.6c-3,0-5.4-2-5.4-5.5v-0.1c0-3.5,2.5-6,5.8-6c1.8,0,3.1,0.6,4.1,1.6
			c1.2,1.2,2,3.2,2,6.8v0.2c0,6.1-2.6,9.6-6.8,9.6c-1.9,0-3.4-0.7-4.8-1.8l1.5-2.3c1.1,0.9,2.1,1.4,3.4,1.4
			C168.6,208.7,169.8,206.1,169.9,203.3z M169.8,199.2L169.8,199.2c0-2-1.2-3.4-3.1-3.4c-1.9,0-3,1.4-3,3.4l0,0c0,2,1.2,3.2,3,3.2
			C168.6,202.4,169.8,201.1,169.8,199.2z"/>
		<path d="M175.3,208.9l1.8-2.1c1,1.1,2.1,1.8,3.8,1.8c1.6,0,2.9-1.1,2.9-2.8v-0.1c0-1.8-1.6-2.8-4-2.8h-0.9l-0.4-1.8l4.3-5.1h-6.6
			v-2.6h10.3v2.3l-4.4,5.1c2.4,0.4,4.7,1.8,4.7,4.9v0.1c0,3.3-2.4,5.5-5.7,5.5C178.5,211.3,176.6,210.4,175.3,208.9z"/>
	</g>
</g>
<g class="st1">
	<path d="M284.5,122.5h12.7c9,0,14.9,4.9,14.9,13v0.1c0,8.7-6.8,13.4-15.4,13.4H289v14.5h-4.5V122.5z M296.8,145.1
		c6.6,0,10.7-3.7,10.7-9.3v-0.1c0-6-4.1-9.1-10.5-9.1h-8v18.5H296.8z"/>
	<path d="M319.4,122.5h25.8v4h-21.3v14.3H343v4h-19.1v14.7h21.6v4h-26.1V122.5z"/>
	<path d="M353.6,122.5H368c4.8,0,8.7,1.4,11.1,3.8c2.1,2.1,3.3,5,3.3,8.4v0.1c0,6.5-4.2,10.4-10,11.8l11.4,16.8h-5.4l-10.6-16h-9.6
		v16h-4.5V122.5z M367.2,143.6c6.9,0,10.7-3.3,10.7-8.6v-0.1c0-5.4-3.9-8.4-10.2-8.4h-9.6v17.1H367.2z"/>
	<path d="M388.2,158.3l2.8-3.3c3.5,3.2,7.1,5.1,11.9,5.1c5.1,0,8.5-3,8.5-6.9v-0.1c0-3.4-1.7-5.6-9.4-8.2c-8.8-3.2-12.2-6.2-12.2-12
		v-0.1c0-6.2,5.3-10.8,12.7-10.8c4.9,0,8.9,1.5,12.7,4.6l-2.7,3.4c-3.1-2.6-6.5-4-10.1-4c-4.8,0-8,2.9-8,6.4v0.1
		c0,3.6,1.9,5.6,9.8,8.4c8.6,3.1,11.7,6.5,11.7,11.9v0.1c0,6.6-5.6,11.2-13.1,11.2C397.5,164.1,392.6,162.3,388.2,158.3z"/>
	<path d="M422.5,143.3v-0.5c0-12.1,7.5-21,18.2-21s18.1,8.9,18.1,20.9v0.5c0,12.1-7.4,21-18.2,21
		C429.9,164.2,422.5,155.3,422.5,143.3z M454.2,143.3v-0.4c0-9.9-5.7-16.9-13.5-16.9s-13.5,7-13.5,16.9v0.4
		c0,9.9,5.7,16.9,13.5,16.9S454.2,153.2,454.2,143.3z"/>
	<path d="M467.4,122.5h4.3l22.1,32.3v-32.3h4.5v41h-3.8l-22.7-33.1v33.1h-4.4V122.5z"/>
	<path d="M508.4,122.5h25.8v4h-21.3v14.3H532v4h-19.1v14.7h21.6v4h-26.1V122.5z"/>
	<path d="M542.6,122.5h4.5v37h19.6v4h-24.2V122.5z"/>
	<path d="M589.6,122.5h14.3c4.5,0,8.1,1.2,10.5,3.5c1.8,1.7,2.8,4,2.8,6.7v0.1c0,5.5-3.4,8.2-6.9,9.6c5,1.4,8.8,4.3,8.8,9.9v0.2
		c0,7-5.9,11.1-14.7,11.1h-14.6V122.5z M612.5,133.4c0-4.2-3.3-6.9-8.9-6.9h-9.5v14.4h9.1c5.6,0,9.3-2.7,9.3-7.4V133.4z
		 M603.8,144.8h-9.7v14.8h10.3c6.1,0,10-2.7,10-7.4v-0.1C614.3,147.5,610.6,144.8,603.8,144.8z"/>
	<path d="M627,114.1h5.3v5H627V114.1z M627.3,122.5h4.5v41h-4.5V122.5z"/>
	<path d="M642.4,122.5h4.5v37h19.6v4h-24.2V122.5z"/>
	<path d="M672.1,143.3v-0.4c0-11.9,7.7-20.9,18.8-20.9c5.5,0,9.2,1.5,12.8,4.4l-2.7,3.5c-2.6-2.2-5.6-3.8-10.2-3.8
		c-8,0-14,7-14,16.8v0.3c0,10.3,5.7,17,14.4,17c3.6,0,6.9-1.3,9.1-2.9v-11.6h-10.6v-3.9h14.9v17.6c-3.3,2.6-8,4.8-13.7,4.8
		C679.5,164.1,672.1,155.6,672.1,143.3z"/>
	<path d="M714.1,114.1h5.3v5h-5.3V114.1z M714.4,122.5h4.5v41h-4.5V122.5z"/>
	<path d="M742.3,158.3l2.8-3.3c3.5,3.2,7.1,5.1,11.9,5.1c5.1,0,8.5-3,8.5-6.9v-0.1c0-3.4-1.7-5.6-9.4-8.2c-8.8-3.2-12.2-6.2-12.2-12
		v-0.1c0-6.2,5.3-10.8,12.7-10.8c4.9,0,8.9,1.5,12.7,4.6l-2.7,3.4c-3.1-2.6-6.5-4-10.1-4c-4.8,0-8,2.9-8,6.4v0.1
		c0,3.6,1.9,5.6,9.8,8.4c8.6,3.1,11.7,6.5,11.7,11.9v0.1c0,6.6-5.6,11.2-13.1,11.2C751.5,164.1,746.7,162.3,742.3,158.3z"/>
	<path d="M778.2,114.1h5.3v5h-5.3V114.1z M778.6,122.5h4.5v41h-4.5V122.5z"/>
	<path d="M790.8,158.3l2.8-3.3c3.5,3.2,7.1,5.1,11.9,5.1c5.1,0,8.5-3,8.5-6.9v-0.1c0-3.4-1.7-5.6-9.4-8.2c-8.8-3.2-12.2-6.2-12.2-12
		v-0.1c0-6.2,5.3-10.8,12.7-10.8c4.9,0,8.9,1.5,12.7,4.6l-2.7,3.4c-3.1-2.6-6.5-4-10.1-4c-4.8,0-8,2.9-8,6.4v0.1
		c0,3.6,1.9,5.6,9.8,8.4c8.6,3.1,11.7,6.5,11.7,11.9v0.1c0,6.6-5.6,11.2-13.1,11.2C800,164.1,795.2,162.3,790.8,158.3z"/>
	<path d="M835.7,126.6h-11.8v-4.1h28.3v4.1h-11.9v36.9h-4.5V126.6z"/>
	<path d="M859.5,122.5h25.8v4H864v14.3h19.1v4H864v14.7h21.6v4h-26.1V122.5z"/>
	<path d="M893.7,122.5h4.7l12.9,22l12.9-22h4.7v41h-4.5v-33.1l-13,21.9h-0.2l-13-21.9v33.1h-4.4V122.5z"/>
	<path d="M939.1,114.1h5.3v5h-5.3V114.1z M939.5,122.5h4.5v41h-4.5V122.5z"/>
</g>
</svg>
