<?xml version="1.0" encoding="utf-8"?>
<!-- Generator: Adobe Illustrator 28.0.0, SVG Export Plug-In . SVG Version: 6.00 Build 0)  -->
<svg version="1.1" id="katman_1" xmlns="http://www.w3.org/2000/svg" xmlns:xlink="http://www.w3.org/1999/xlink" x="0px" y="0px"
	 viewBox="0 0 5442.5 3061.4" style="enable-background:new 0 0 5442.5 3061.4;" xml:space="preserve">
<style type="text/css">
	.st0{fill:#D8161A;}
</style>
<g>
	<path class="st0" d="M-285.7,2619.5l-470-363.7l-304.7,236.2L0.1,3304.4l1036.8-810l-285.8-245.6L274,2619.5L-2.3,1629.9h-2.4
		L-285.7,2619.5z M-4.6,1627.6L-4.6,1627.6v2.4l1289.5,212.5l-462.9,368.4l297.6,224.4l1048.6-807.7L1114.8,815.2l-307,236.2
		l472.3,366.1L-4.6,1627.6l276.3-991.9l470,366.1l307-236.2L2.4-49.2l-1062.7,812.4l304.7,236.2l470-363.7l283.4,991.9l0,0
		L-1313,1412.7l462.9-368.4l-297.6-224.4l-1048.6,807.7L-1143,2440l307-236.2l-472.3-366.1l1296.6-210.2l7.1,2.4"/>
</g>
</svg>
