<?xml version="1.0" encoding="utf-8"?>
<!-- Generator: Adobe Illustrator 28.0.0, SVG Export Plug-In . SVG Version: 6.00 Build 0)  -->
<svg version="1.1" id="katman_1" xmlns="http://www.w3.org/2000/svg" xmlns:xlink="http://www.w3.org/1999/xlink" x="0px" y="0px"
	 viewBox="0 0 1000 239.7" style="enable-background:new 0 0 1000 239.7;" xml:space="preserve">
<style type="text/css">
	.st0{fill:#D81117;}
	.st1{font-family:'GothamNarrow-Book';}
	.st2{font-size:58.6461px;}
</style>
<g>
	<path d="M284.5,52H303c5.4,0,9.5,1.3,12.2,4c1.9,1.8,2.9,4.2,2.9,7.4v0.3c0,5.1-2.9,8.2-6.7,9.9c4.8,1.8,8.2,4.7,8.2,10.6v0.3
		c0,7.7-6,12.4-16.6,12.4h-18.6V52z M306.8,65.7c0-2.7-1.9-4.2-5.4-4.2h-5.7V70h5.5C304.7,70,306.8,68.6,306.8,65.7L306.8,65.7z
		 M302.4,78.4h-6.7v8.8h6.8c3.6,0,5.7-1.6,5.7-4.4v-0.1C308.2,80.2,306.2,78.4,302.4,78.4z"/>
	<path d="M337.1,51.7h11.7l15.8,45.1h-12.1l-2.6-8.1h-14.1l-2.6,8.1h-11.9L337.1,51.7z M347,79.5l-4.2-13.1l-4.2,13.1H347z"/>
	<path d="M373.8,103.5l4.7-6.5c-5-0.7-9.6-2.7-13.6-6.2l6.2-8.4c3.7,3,7.8,5.1,12.2,5.1c3.1,0,4.7-1.3,4.7-3.3v-0.1
		c0-1.8-1.3-2.9-6.6-4.7c-8.5-2.9-14.4-6-14.4-14.1v-0.2c0-8.1,6.2-13.8,16-13.8c6,0,11.3,1.7,16,5.4l-5.8,8.6
		c-3.1-2.4-6.8-4.1-10.4-4.1c-2.6,0-4.1,1.3-4.1,2.9v0.1c0,2,1.4,3,7.1,5.1c8.5,2.8,13.8,6.2,13.8,13.8v0.1
		c0,7.8-5.3,12.8-13.1,13.8l-3.3,9.8L373.8,103.5z"/>
	<path d="M404.4,52h11.5v17.7L428.3,52h13.3l-13.9,19.1L442,96.8h-13.5l-9-16.3l-3.6,4.7v11.7h-11.5V52z"/>
	<path d="M445.1,52H476v10.1h-19.5v7.4h17.6V79h-17.6v7.7h19.7v10.1h-31.1V52z"/>
	<path d="M481.7,52h10.8l14.9,22.6V52h11.3v44.8h-10.3L493,73.3v23.5h-11.3V52z"/>
	<path d="M534.4,62.4h-11.1V52H557v10.4h-11.1v34.5h-11.5V62.4z"/>
</g>
<g>
	<path d="M575.9,79.7V52h7.4v27.7c0,7.2,3.5,11,9.3,11c5.6,0,9.2-3.7,9.2-10.8V52h7.4v27.5c0,12-6.6,18.1-16.7,18.1
		C582.5,97.5,575.9,91.4,575.9,79.7z M583,41.8h7.4v6.9H583V41.8z M594.8,41.8h7.3v6.9h-7.3V41.8z"/>
	<path d="M616.6,52h6.9l19.7,29.9V52h7.2v44.8h-6.3L623.9,66v30.8h-7.3V52z"/>
	<path d="M658.7,41.7h7.4v6.9h-7.4V41.7z M658.7,52h7.4v44.8h-7.4V52z"/>
	<path d="M671,52h8.1l11,33.9l11-33.9h7.8l-15.5,45.1h-6.9L671,52z"/>
	<path d="M713.5,52h28.3v6.7h-20.9v12.2h18.5v6.7h-18.5v12.5H742v6.7h-28.6V52z"/>
	<path d="M747.9,52h16.2c5.1,0,9.3,1.5,12,4.2c2.4,2.4,3.7,5.8,3.7,9.9v0.3c0,6.9-3.8,11.2-9.3,13.1l10.6,17.4h-8.6L763,80.9
		c-0.1,0.1-0.3,0.1-0.4,0.1h-7.2v15.8h-7.4V52z M763.4,74.3c5.8,0,9-3.1,9-7.8v-0.1c0-5.1-3.3-7.7-8.8-7.7h-8.1v15.6H763.4z"/>
	<path d="M782.8,90.9l4.5-5.6c3.3,3,7,5.3,11.8,5.3c4.3,0,7-2.4,7-5.7v-0.1c0-2.8-1.5-4.7-8.6-7.3c-8.5-3.2-12.9-6.3-12.9-13.5V64
		c0-7.4,5.9-12.6,14.2-12.6c5.2,0,10,1.7,14.1,5.3l-4.2,5.7c-3.1-2.5-6.5-4.2-10.1-4.2c-4,0-6.5,2.2-6.5,5.2v0.1
		c0,3.1,1.7,4.8,9.3,7.8c8.3,3.2,12.2,6.7,12.2,13.2v0.1c0,7.9-6.2,12.9-14.5,12.9C793.3,97.4,787.7,95.4,782.8,90.9z"/>
	<path d="M819.7,41.7h7.4v6.9h-7.4V41.7z M819.7,52h7.4v44.8h-7.4V52z"/>
	<path d="M844.3,58.9h-11.8V52h31v6.9h-11.8v37.9h-7.4V58.9z"/>
	<path d="M868.6,52h28.3v6.7H876v12.2h18.5v6.7H876v12.5h21.2v6.7h-28.6V52z"/>
	<path d="M899.9,90.9l4.5-5.6c3.3,3,7,5.3,11.8,5.3c4.3,0,7-2.4,7-5.7v-0.1c0-2.8-1.5-4.7-8.6-7.3c-8.5-3.2-12.9-6.3-12.9-13.5V64
		c0-7.4,5.9-12.6,14.2-12.6c5.2,0,10,1.7,14.1,5.3l-4.2,5.7c-3.1-2.5-6.5-4.2-10.1-4.2c-4,0-6.5,2.2-6.5,5.2v0.1
		c0,3.1,1.7,4.8,9.3,7.8c8.3,3.2,12.2,6.7,12.2,13.2v0.1c0,7.9-6.2,12.9-14.5,12.9C910.4,97.4,904.8,95.4,899.9,90.9z"/>
	<path d="M936.9,41.7h7.4v6.9h-7.4V41.7z M936.9,52h7.4v44.8h-7.4V52z"/>
</g>
<g>
	<path class="st0" d="M150.2,152.6l-19.9-15.4l-12.9,10l44.9,34.4l43.9-34.3l-12.1-10.4l-20.2,15.7l-11.7-41.9l-0.1,0L150.2,152.6z
		 M162.4,39.6L117.4,74l12.9,10l19.9-15.4l12,42l0,0l-55.5-9.1l19.6-15.6l-12.6-9.5l-44.4,34.2l44.6,34.4l13-10l-20-15.5l54.9-8.9
		l0.3,0.1l0-0.1v0v0l0,0.1l54.6,9l-19.6,15.6l12.6,9.5l44.4-34.2l-44.6-34.4l-13,10l20,15.5l-54.4,8.9l11.7-42l19.9,15.5l13-10
		L162.4,39.6z"/>
	<g>
		<path d="M139.3,196.4l-2.8,0.8l-0.5-2.5l4.1-1.4h2.1v17.7h-2.9V196.4z"/>
		<path d="M155,203.3c-0.9,1-2.1,1.6-3.7,1.6c-3,0-5.4-2-5.4-5.5v-0.1c0-3.5,2.5-6,5.8-6c1.8,0,3.1,0.6,4.1,1.6c1.2,1.2,2,3.2,2,6.8
			v0.2c0,6.1-2.6,9.6-6.8,9.6c-1.9,0-3.4-0.7-4.8-1.8l1.5-2.3c1.1,0.9,2.1,1.4,3.4,1.4C153.7,208.7,154.9,206.1,155,203.3z
			 M154.9,199.2L154.9,199.2c0-2-1.2-3.4-3.1-3.4c-1.9,0-3,1.4-3,3.4v0c0,2,1.2,3.2,3,3.2C153.7,202.4,154.9,201.1,154.9,199.2z"/>
		<path d="M169.9,203.3c-0.9,1-2.1,1.6-3.7,1.6c-3,0-5.4-2-5.4-5.5v-0.1c0-3.5,2.5-6,5.8-6c1.8,0,3.1,0.6,4.1,1.6
			c1.2,1.2,2,3.2,2,6.8v0.2c0,6.1-2.6,9.6-6.8,9.6c-1.9,0-3.4-0.7-4.8-1.8l1.5-2.3c1.1,0.9,2.1,1.4,3.4,1.4
			C168.6,208.7,169.8,206.1,169.9,203.3z M169.8,199.2L169.8,199.2c0-2-1.2-3.4-3.1-3.4c-1.9,0-3,1.4-3,3.4v0c0,2,1.2,3.2,3,3.2
			C168.6,202.4,169.8,201.1,169.8,199.2z"/>
		<path d="M175.3,208.9l1.8-2.1c1,1.1,2.1,1.8,3.8,1.8c1.6,0,2.9-1.1,2.9-2.8v-0.1c0-1.8-1.6-2.8-4-2.8h-0.9l-0.4-1.8l4.3-5.1h-6.6
			v-2.6h10.3v2.3l-4.4,5.1c2.4,0.4,4.7,1.8,4.7,4.9v0.1c0,3.3-2.4,5.5-5.7,5.5C178.5,211.3,176.6,210.4,175.3,208.9z"/>
	</g>
</g>
<text transform="matrix(1 0 0 1 279.4436 163.5529)" class="st1 st2">PERSONEL BİLGİ PORTALI</text>
</svg>
